<svg width="74" height="22" viewBox="0 0 74 22" fill="none" xmlns="http://www.w3.org/2000/svg">
<path d="M0.523875 2.344C0.523875 1.42667 1.19588 0.967999 2.53988 0.967999C3.11588 0.967999 4.21454 0.989332 5.83588 1.032C7.62788 1.11733 8.98254 1.16 9.89988 1.16C10.6465 1.16 11.5532 1.11733 12.6199 1.032C13.3452 0.989332 13.8039 0.967999 13.9959 0.967999C15.1692 1.01067 16.1612 1.224 16.9719 1.608C17.2065 1.71467 17.3985 1.84267 17.5479 1.992C17.6972 2.14133 17.7719 2.38667 17.7719 2.728C17.7719 3.19733 17.6225 3.60267 17.3239 3.944C17.0252 4.264 16.6625 4.424 16.2359 4.424C15.7665 4.424 15.0839 4.36 14.1879 4.232C13.3985 4.08267 12.7052 4.008 12.1079 4.008C11.5319 4.008 11.0945 4.01867 10.7959 4.04C10.7319 4.744 10.6999 6.42933 10.6999 9.096C10.6999 12.2747 10.7959 15.496 10.9879 18.76L11.0519 19.688C11.0519 20.5627 10.5505 21 9.54788 21C8.75854 21 8.22521 20.8187 7.94788 20.456C7.67054 20.072 7.53188 19.496 7.53188 18.728C7.53188 17.2133 7.48921 15.3253 7.40388 13.064C7.31854 11.1867 7.27588 9.85333 7.27588 9.064C7.27588 8.53067 7.33988 6.89867 7.46788 4.168L3.72388 4.2C2.52921 4.2 1.69721 4.09333 1.22787 3.88C0.758542 3.64533 0.523875 3.13333 0.523875 2.344ZM16.8849 10.216C16.7142 10.216 16.5542 10.152 16.4049 10.024C16.2769 9.87467 16.2129 9.704 16.2129 9.512C16.2129 9.02133 16.4262 8.56267 16.8529 8.136C16.9809 8.072 17.2369 7.96533 17.6209 7.816C18.0049 7.66667 18.3462 7.592 18.6449 7.592C19.4555 7.592 20.1169 7.816 20.6289 8.264C21.1409 8.69067 21.3969 9.30933 21.3969 10.12C21.3969 10.3547 21.3542 10.856 21.2689 11.624C21.1835 12.52 21.1409 13.2133 21.1409 13.704C21.1409 15.1973 21.3435 16.4027 21.7489 17.32C21.8982 17.6187 22.1329 17.8533 22.4529 18.024C22.7729 18.1947 23.0609 18.28 23.3169 18.28C23.9355 18.28 24.4369 18.1733 24.8209 17.96C25.2049 17.7467 25.6209 17.4053 26.0689 16.936C26.5169 16.4667 26.8049 15.9333 26.9329 15.336C27.0822 14.7387 27.1889 13.9173 27.2529 12.872C27.2955 12.1893 27.3382 11.688 27.3809 11.368C27.4875 10.344 27.5409 9.46933 27.5409 8.744C27.5409 8.27467 27.6689 7.89067 27.9249 7.592C28.1809 7.272 28.5329 7.112 28.9809 7.112C29.2369 7.112 29.5249 7.19733 29.8449 7.368C30.1862 7.51733 30.4102 7.69867 30.5169 7.912C30.6449 8.12533 30.7089 8.47733 30.7089 8.968C30.7089 9.224 30.6769 9.46933 30.6129 9.704C30.4635 10.2373 30.3889 10.8773 30.3889 11.624L30.4209 13.288C30.4209 14.8027 30.5275 15.9227 30.7409 16.648C30.8475 16.9893 30.9969 17.3413 31.1889 17.704C31.3809 18.0453 31.5622 18.3333 31.7329 18.568C32.1595 19.0373 32.4369 19.368 32.5649 19.56C32.6929 19.7307 32.7569 19.9013 32.7569 20.072C32.7569 20.328 32.6289 20.5733 32.3729 20.808C32.1382 21.0213 31.8822 21.128 31.6049 21.128C30.8155 21.128 30.1329 20.8613 29.5569 20.328C28.9809 19.7947 28.5542 19.1013 28.2769 18.248C27.5515 19.08 26.8795 19.752 26.2609 20.264C25.8342 20.5627 25.3115 20.7867 24.6929 20.936C24.0742 21.064 23.4555 21.128 22.8369 21.128C22.0049 21.128 21.1622 20.7867 20.3089 20.104C19.4555 19.4213 18.8795 18.632 18.5809 17.736C18.5595 17.6933 18.4955 17.5227 18.3889 17.224C18.3035 16.9253 18.2609 16.4773 18.2609 15.88C18.2609 15.0907 18.3035 14.0987 18.3889 12.904C18.4529 12.136 18.4849 11.432 18.4849 10.792C18.4849 10.6 18.4102 10.44 18.2609 10.312C18.1329 10.184 17.9835 10.12 17.8129 10.12C17.6849 10.12 17.5355 10.1413 17.3649 10.184C17.2155 10.2053 17.0555 10.216 16.8849 10.216ZM35.1804 9.928C34.8817 9.88533 34.6364 9.75733 34.4444 9.544C34.2737 9.33067 34.1884 9.07467 34.1884 8.776C34.1884 8.62667 34.2204 8.46667 34.2844 8.296C34.3697 8.12533 34.487 7.976 34.6364 7.848C34.9137 7.57067 35.6604 7.432 36.8764 7.432C37.047 6.6 37.1324 5.75733 37.1324 4.904C37.1324 4.584 37.1217 4.30667 37.1004 4.072C37.079 3.83733 37.0684 3.656 37.0684 3.528C37.0684 3.05867 37.239 2.70667 37.5804 2.472C37.943 2.23733 38.3484 2.12 38.7964 2.12C39.351 2.12 39.7244 2.25867 39.9164 2.536C40.1297 2.81333 40.2364 3.32533 40.2364 4.072C40.2364 5.18133 40.1404 6.26933 39.9484 7.336C40.2897 7.336 40.759 7.31467 41.3564 7.272C42.167 7.22933 42.7537 7.208 43.1164 7.208C43.479 7.208 43.7884 7.304 44.0444 7.496C44.3217 7.66667 44.4604 7.912 44.4604 8.232C44.4604 9.064 44.087 9.55467 43.3404 9.704C42.551 9.896 41.3244 10.0133 39.6604 10.056C39.5964 10.888 39.5644 11.7947 39.5644 12.776C39.5644 14.312 39.6604 15.5707 39.8524 16.552C39.9804 17.2347 40.1937 17.736 40.4924 18.056C40.8124 18.3547 41.2817 18.504 41.9004 18.504C42.263 18.504 42.6364 18.408 43.0204 18.216C43.2764 18.0667 43.511 17.992 43.7244 17.992C44.023 17.992 44.2364 18.088 44.3644 18.28C44.5137 18.472 44.5884 18.728 44.5884 19.048C44.5884 19.6453 44.2684 20.1467 43.6284 20.552C42.9884 20.936 42.167 21.128 41.1644 21.128C40.5457 21.128 39.9164 20.9787 39.2764 20.68C38.6577 20.3813 38.135 20.008 37.7084 19.56C37.6444 19.496 37.527 19.2507 37.3564 18.824C37.1857 18.3973 37.0364 17.9387 36.9084 17.448C36.695 16.4453 36.5884 15.0373 36.5884 13.224C36.5884 12.4347 36.631 11.3787 36.7164 10.056L35.1804 9.928ZM59.8196 10.728C59.9903 11.0267 60.129 11.464 60.2356 12.04C60.3423 12.5947 60.3956 13.096 60.3956 13.544C60.3956 14.12 60.3316 14.76 60.2036 15.464C60.0756 16.168 59.9583 16.712 59.8516 17.096C58.3796 19.784 56.2036 21.128 53.3236 21.128C52.257 21.128 51.169 20.776 50.0596 20.072C48.9503 19.368 48.1823 18.5573 47.7556 17.64C47.1796 15.8267 46.8916 14.664 46.8916 14.152C46.8916 13.2987 47.073 12.392 47.4356 11.432C47.8196 10.472 48.2996 9.64 48.8756 8.936C49.2596 8.44533 49.921 8.02933 50.8596 7.688C51.7983 7.32533 52.6516 7.144 53.4196 7.144C54.913 7.144 56.1716 7.432 57.1956 8.008C58.241 8.56267 59.1156 9.46933 59.8196 10.728ZM57.0356 15.88C57.1423 15.6667 57.1956 14.952 57.1956 13.736C57.1956 13.1173 57.0783 12.5093 56.8436 11.912C56.6303 11.3147 56.3103 10.8027 55.8836 10.376C55.841 10.3333 55.7236 10.2693 55.5316 10.184C55.3396 10.0773 55.073 9.98133 54.7316 9.896C54.4116 9.78933 54.0383 9.736 53.6116 9.736C52.417 9.736 51.5423 10.216 50.9876 11.176C50.433 12.136 50.1556 13.224 50.1556 14.44C50.1556 14.632 50.2196 15.0267 50.3476 15.624C50.4756 16.2213 50.5716 16.6053 50.6356 16.776C50.8063 17.0747 51.1476 17.4267 51.6596 17.832C52.193 18.216 52.769 18.408 53.3876 18.408C54.3476 18.408 55.105 18.184 55.6596 17.736C56.2356 17.2667 56.6943 16.648 57.0356 15.88ZM63.5896 9.768C63.035 9.384 62.7576 8.97867 62.7576 8.552C62.7576 8.25333 62.8856 7.976 63.1416 7.72C63.3976 7.464 63.7816 7.336 64.2936 7.336C64.891 7.336 65.4243 7.496 65.8936 7.816C66.3843 8.11467 66.7256 8.552 66.9176 9.128C67.4083 8.552 67.963 8.09333 68.5816 7.752C69.2216 7.41067 69.8723 7.24 70.5336 7.24C71.323 7.24 72.0376 7.45333 72.6776 7.88C73.3176 8.30667 73.6376 8.88267 73.6376 9.608C73.6376 10.0133 73.4563 10.4293 73.0936 10.856C72.7523 11.2827 72.4003 11.496 72.0376 11.496C71.8456 11.496 71.675 11.4533 71.5256 11.368C71.3976 11.2613 71.2376 11.112 71.0456 10.92C70.8323 10.7067 70.651 10.5573 70.5016 10.472C70.3523 10.3653 70.1816 10.312 69.9896 10.312C69.6483 10.312 69.3283 10.3653 69.0296 10.472C68.731 10.5787 68.5283 10.7067 68.4216 10.856C68.0803 11.3893 67.8243 11.8693 67.6536 12.296C67.5043 12.7227 67.4296 13.1813 67.4296 13.672C67.4296 14.0347 67.419 14.3227 67.3976 14.536L67.3656 16.36C67.3656 16.6373 67.3763 16.9467 67.3976 17.288C67.419 17.6293 67.4403 17.8853 67.4616 18.056C67.5256 18.632 67.5576 19.1867 67.5576 19.72C67.5576 20.0827 67.419 20.4027 67.1416 20.68C66.8643 20.9573 66.523 21.096 66.1176 21.096C65.4776 21.096 65.0083 20.9787 64.7096 20.744C64.411 20.488 64.2616 20.0293 64.2616 19.368L64.2296 17.32C64.2083 16.9147 64.1976 16.3387 64.1976 15.592L64.2296 13.48C64.2723 12.456 64.2936 11.624 64.2936 10.984C64.2936 10.7493 64.2403 10.536 64.1336 10.344C64.0483 10.152 63.867 9.96 63.5896 9.768Z" fill="#3652E3"/>
</svg>
