<svg width="12" height="12" viewBox="0 0 12 12" fill="none" xmlns="http://www.w3.org/2000/svg">
<path d="M0.290006 2.11L4.18001 6L0.290006 9.89C0.197424 9.98258 0.123984 10.0925 0.0738792 10.2135C0.0237743 10.3344 -0.00201416 10.4641 -0.00201416 10.595C-0.00201416 10.7259 0.0237743 10.8556 0.0738792 10.9765C0.123984 11.0975 0.197424 11.2074 0.290006 11.3C0.382588 11.3926 0.492499 11.466 0.613463 11.5161C0.734427 11.5662 0.864075 11.592 0.995006 11.592C1.12594 11.592 1.25559 11.5662 1.37655 11.5161C1.49751 11.466 1.60742 11.3926 1.70001 11.3L6.29001 6.71C6.38271 6.61749 6.45626 6.5076 6.50644 6.38662C6.55662 6.26565 6.58245 6.13597 6.58245 6.005C6.58245 5.87403 6.55662 5.74435 6.50644 5.62338C6.45626 5.5024 6.38271 5.39251 6.29001 5.3L1.70001 0.7C1.60749 0.607296 1.4976 0.533749 1.37663 0.483567C1.25566 0.433386 1.12597 0.407556 0.995006 0.407556C0.864038 0.407556 0.734355 0.433386 0.613382 0.483567C0.492409 0.533749 0.38252 0.607296 0.290006 0.7C-0.0899938 1.09 -0.0899938 1.73 0.290006 2.11ZM11 0C11.55 0 12 0.45 12 1L12 11C12 11.55 11.55 12 11 12C10.45 12 10 11.55 10 11L10 1C10 0.45 10.45 0 11 0Z" fill="#3652E3"/>
</svg>
