<svg width="12" height="12" viewBox="0 0 12 12" fill="none" xmlns="http://www.w3.org/2000/svg">
<path d="M11.71 9.89L7.81999 6L11.71 2.11C11.8026 2.01742 11.876 1.90751 11.9261 1.78654C11.9762 1.66558 12.002 1.53593 12.002 1.405C12.002 1.27407 11.9762 1.14442 11.9261 1.02346C11.876 0.902493 11.8026 0.792582 11.71 0.700001C11.6174 0.607419 11.5075 0.533978 11.3865 0.483873C11.2656 0.433768 11.1359 0.40798 11.005 0.40798C10.8741 0.40798 10.7444 0.433768 10.6235 0.483873C10.5025 0.533978 10.3926 0.607419 10.3 0.700001L5.70999 5.29C5.61729 5.38251 5.54374 5.4924 5.49356 5.61338C5.44338 5.73435 5.41755 5.86403 5.41755 5.995C5.41755 6.12597 5.44338 6.25565 5.49356 6.37662C5.54374 6.4976 5.61729 6.60749 5.70999 6.7L10.3 11.3C10.3925 11.3927 10.5024 11.4663 10.6234 11.5164C10.7443 11.5666 10.874 11.5924 11.005 11.5924C11.136 11.5924 11.2656 11.5666 11.3866 11.5164C11.5076 11.4663 11.6175 11.3927 11.71 11.3C12.09 10.91 12.09 10.27 11.71 9.89ZM0.999994 12C0.449994 12 -5.68271e-06 11.55 -5.63462e-06 11L-4.7604e-06 0.999999C-4.71231e-06 0.449999 0.449995 -1.00991e-06 0.999995 -9.61827e-07C1.55 -9.13745e-07 2 0.449999 2 0.999999L1.99999 11C1.99999 11.55 1.54999 12 0.999994 12Z" fill="#3652E3"/>
</svg>
