<svg width="29" height="22" viewBox="0 0 29 22" fill="none" xmlns="http://www.w3.org/2000/svg">
<rect x="0.5" y="0.5" width="27.6667" height="21" stroke="#3652E3" stroke-opacity="0.25"/>
<path d="M7.25417 1H21.4083V21H7.25L7.25417 1Z" fill="white"/>
<path d="M0.179169 1H7.25417V21H0.179169V1ZM21.4083 1H28.4833V21H21.4125L21.4083 1ZM9.375 10.6667L8.82083 10.85L11.3792 13.1C11.575 13.6708 11.3125 13.8417 11.1458 14.1417L13.9208 13.7917L13.8542 16.5833L14.4333 16.5708L14.3042 13.7958L17.0833 14.1292C16.9125 13.7667 16.7583 13.575 16.9167 12.9958L19.4708 10.8708L19.025 10.7042C18.6583 10.4208 19.1833 9.34583 19.2583 8.66667C19.2583 8.66667 17.7708 9.17917 17.675 8.90833L17.2917 8.17917L15.9333 9.67083C15.7875 9.70833 15.725 9.65 15.6875 9.525L16.3125 6.40833L15.3208 6.96667C15.2375 7.00417 15.1542 6.97083 15.1042 6.875L14.1458 4.95833L13.1625 6.95C13.0875 7.02083 13.0125 7.02917 12.9542 6.97917L12 6.45L12.5708 9.5375C12.525 9.6625 12.4167 9.69583 12.2917 9.62917L10.9917 8.15833C10.825 8.42917 10.7083 8.87083 10.4833 8.97083C10.2583 9.06667 9.50417 8.78333 9 8.67917C9.175 9.29583 9.70833 10.3292 9.375 10.6667Z" fill="#D52B1E"/>
</svg>
