<svg width="41" height="40" viewBox="0 0 41 40" fill="none" xmlns="http://www.w3.org/2000/svg">
<g clip-path="url(#clip0_70_7439)">
<path d="M14.8998 24.125C14.7803 24.125 14.6608 24.14 14.5468 24.1718C13.8988 24.3527 13.2173 24.4688 12.4998 24.4688C11.7823 24.4688 11.1008 24.3527 10.4523 24.1718C10.3383 24.14 10.2193 24.125 10.0998 24.125C6.99684 24.125 4.48334 26.2941 4.49984 28.9641C4.50684 30.0925 5.58634 31 6.89984 31H18.0998C19.4133 31 20.4928 30.0925 20.4998 28.9641C20.5163 26.2941 18.0028 24.125 14.8998 24.125ZM12.4998 22.75C15.1508 22.75 17.2998 20.9032 17.2998 18.625C17.2998 16.3468 15.1508 14.5 12.4998 14.5C9.84884 14.5 7.69984 16.3468 7.69984 18.625C7.69984 20.9032 9.84884 22.75 12.4998 22.75ZM34.0998 9H14.8998C13.5763 9 12.4998 9.95605 12.4998 11.1308V13.125C13.6708 13.125 14.7548 13.4163 15.6998 13.8898V11.75H33.2998V24.125H30.0998V21.375H23.6998V24.125H19.8878C20.8428 24.8421 21.5438 25.7892 21.8723 26.875H34.0998C35.4233 26.875 36.4998 25.9189 36.4998 24.7442V11.1308C36.4998 9.95605 35.4233 9 34.0998 9Z" fill="#3652E3"/>
</g>
<defs>
<clipPath id="clip0_70_7439">
<rect width="32" height="22" fill="white" transform="translate(4.5 9)"/>
</clipPath>
</defs>
</svg>
