<svg version="1.1" id="Layer_1" xmlns="http://www.w3.org/2000/svg" xmlns:xlink="http://www.w3.org/1999/xlink" x="0px" y="0px"
	 width="100%" viewBox="0 0 640 496" enable-background="new 0 0 640 496" xml:space="preserve">
<path fill="#3652E3" opacity="1.000000" stroke="none" 
	d="
M640.000000,497.000000 
	C427.000000,497.000000 214.000000,497.000000 1.269418,496.307251 
	C10.367798,476.614716 26.693695,466.859100 45.526279,460.568237 
	C74.011528,451.052979 101.215027,438.435760 128.868011,426.892548 
	C151.730652,417.348938 173.907211,405.891174 198.381744,400.691040 
	C205.313354,399.218262 209.897491,395.227417 213.719727,389.704254 
	C219.817566,380.892853 224.750977,371.414642 228.912109,361.615631 
	C231.356613,355.859070 234.473557,352.099091 240.966644,351.539276 
	C244.763412,351.211945 245.416336,348.878052 244.147354,345.484741 
	C242.231369,340.361298 238.976257,336.208771 235.256042,332.342804 
	C231.232590,328.161743 228.288681,323.471832 227.731491,317.501801 
	C226.449020,303.760834 224.791382,290.046356 223.907257,276.281219 
	C223.584290,271.252777 221.684845,269.037048 217.015778,268.398224 
	C208.883636,267.285553 204.092743,262.019073 200.913300,254.973938 
	C199.616638,252.100723 198.481705,249.126862 197.581924,246.106796 
	C192.450104,228.881821 191.858139,211.048309 190.669128,193.299713 
	C190.447571,189.992188 191.725327,187.038208 193.399002,184.350174 
	C198.539490,176.094208 199.154999,167.556763 197.175369,158.027191 
	C192.037003,133.291962 189.873108,108.299362 194.691177,83.205421 
	C200.522919,52.832016 216.844009,31.112984 246.461609,19.878941 
	C267.826538,11.775165 289.203583,4.003145 312.000000,1.000000 
	C321.022003,1.000000 330.044037,1.000000 339.888611,1.140258 
	C343.329071,1.752254 345.969574,2.124293 348.561157,2.712086 
	C364.112762,6.239341 379.379944,10.677088 390.811005,22.623106 
	C396.254730,28.312075 402.812103,30.114166 410.002228,30.627474 
	C417.696503,31.176781 422.878967,34.996124 426.951508,41.300468 
	C435.518555,54.562424 438.970428,69.437500 440.215485,84.757729 
	C442.071716,107.598236 437.854065,130.234314 436.666656,152.980896 
	C436.186523,162.178741 436.784332,170.883865 441.713745,178.942276 
	C444.509979,183.513428 446.473724,188.484879 447.394531,193.779877 
	C450.364319,210.856796 447.956879,227.535034 443.633881,244.090973 
	C440.846283,254.766724 435.694702,263.322998 424.936859,267.787903 
	C418.742584,270.358765 415.808289,275.835022 414.394440,282.119446 
	C412.966095,288.468201 412.439423,294.922760 412.310303,301.432037 
	C412.089081,312.585388 409.239899,322.766327 401.253052,331.104797 
	C399.208008,333.239929 397.513824,335.817902 396.098907,338.430908 
	C390.649292,348.495209 392.224884,351.681763 403.416107,352.559845 
	C408.182678,352.933868 410.753082,354.884949 412.687683,359.281158 
	C417.648743,370.554779 423.012665,381.659454 430.405731,391.638397 
	C433.694031,396.076904 437.620270,399.218323 443.222870,400.417297 
	C460.404694,404.094360 476.443512,411.034760 492.582001,417.784088 
	C526.971802,432.166412 560.620178,448.353577 596.037720,460.255035 
	C605.671692,463.492340 615.058777,467.509674 623.253784,473.706909 
	C631.202271,479.717682 637.915833,486.722870 640.000000,497.000000 
z"/>
</svg>