<svg width="24" height="24" viewBox="0 0 24 24" fill="none" xmlns="http://www.w3.org/2000/svg">
<path d="M0 5C0 2.23858 2.23858 0 5 0H19C21.7614 0 24 2.23858 24 5V19C24 21.7614 21.7614 24 19 24H5C2.23858 24 0 21.7614 0 19V5Z" fill="#3652E3"/>
<path d="M11.625 15.8505L16.2475 11.228C15.4698 10.9032 14.7635 10.4288 14.1688 9.8317C13.5713 9.23683 13.0967 8.53031 12.7719 7.75233L8.14939 12.3748C7.78876 12.7355 7.60814 12.9161 7.45314 13.1148C7.27008 13.3494 7.11311 13.6032 6.98501 13.8717C6.87689 14.0992 6.79626 14.3417 6.63501 14.8254L5.78376 17.3773C5.74458 17.4942 5.73877 17.6196 5.76698 17.7396C5.79518 17.8595 5.85629 17.9693 5.94343 18.0564C6.03057 18.1435 6.14029 18.2047 6.26025 18.2329C6.38022 18.2611 6.50567 18.2553 6.62251 18.2161L9.17439 17.3648C9.65876 17.2036 9.90064 17.123 10.1281 17.0148C10.3969 16.8867 10.6506 16.7298 10.885 16.5467C11.0838 16.3917 11.2644 16.2111 11.625 15.8505ZM17.53 9.94545C17.9909 9.48455 18.2498 8.85944 18.2498 8.20764C18.2498 7.55583 17.9909 6.93072 17.53 6.46983C17.0691 6.00893 16.444 5.75 15.7922 5.75C15.1404 5.75 14.5153 6.00893 14.0544 6.46983L13.5 7.0242L13.5238 7.09358C13.797 7.87527 14.244 8.58476 14.8313 9.16858C15.4325 9.77339 16.1669 10.2293 16.9756 10.4998L17.53 9.94545Z" fill="white"/>
</svg>
