<svg width="41" height="40" viewBox="0 0 41 40" fill="none" xmlns="http://www.w3.org/2000/svg">
<g clip-path="url(#clip0_76_8522)">
<path d="M20.5 10C26.023 10 30.5 14.477 30.5 20C30.5 25.523 26.023 30 20.5 30C14.977 30 10.5 25.523 10.5 20C10.5 14.477 14.977 10 20.5 10ZM20.5 14C20.2348 14 19.9804 14.1054 19.7929 14.2929C19.6054 14.4804 19.5 14.7348 19.5 15V20C19.5001 20.2652 19.6055 20.5195 19.793 20.707L22.793 23.707C22.9816 23.8892 23.2342 23.99 23.4964 23.9877C23.7586 23.9854 24.0094 23.8802 24.1948 23.6948C24.3802 23.5094 24.4854 23.2586 24.4877 22.9964C24.49 22.7342 24.3892 22.4816 24.207 22.293L21.5 19.586V15C21.5 14.7348 21.3946 14.4804 21.2071 14.2929C21.0196 14.1054 20.7652 14 20.5 14Z" fill="#3652E3"/>
</g>
<defs>
<clipPath id="clip0_76_8522">
<rect width="24" height="24" fill="white" transform="translate(8.5 8)"/>
</clipPath>
</defs>
</svg>
