<svg width="31" height="30" viewBox="0 0 31 30" fill="none" xmlns="http://www.w3.org/2000/svg">
<g clip-path="url(#clip0_2607_3380)">
<path d="M30.5 15C30.5 6.71578 23.7842 0 15.5 0C7.21578 0 0.5 6.71578 0.5 15C0.5 22.4869 5.98531 28.6925 13.1562 29.8178V19.3359H9.34766V15H13.1562V11.6953C13.1562 7.93594 15.3957 5.85938 18.822 5.85938C20.4631 5.85938 22.1797 6.15234 22.1797 6.15234V9.84375H20.2883C18.4249 9.84375 17.8438 11 17.8438 12.1863V15H22.0039L21.3389 19.3359H17.8438V29.8178C25.0147 28.6925 30.5 22.487 30.5 15Z" fill="#1877F2"/>
<path d="M21.3389 19.3359L22.0039 15H17.8438V12.1863C17.8438 10.9999 18.4249 9.84375 20.2883 9.84375H22.1797V6.15234C22.1797 6.15234 20.4631 5.85938 18.8219 5.85938C15.3957 5.85938 13.1562 7.93594 13.1562 11.6953V15H9.34766V19.3359H13.1562V29.8178C13.9316 29.9393 14.7152 30.0002 15.5 30C16.2848 30.0002 17.0684 29.9393 17.8438 29.8178V19.3359H21.3389Z" fill="white"/>
</g>
<defs>
<clipPath id="clip0_2607_3380">
<rect width="30" height="30" fill="white" transform="translate(0.5)"/>
</clipPath>
</defs>
</svg>
