<svg width="28" height="28" viewBox="0 0 28 28" fill="none" xmlns="http://www.w3.org/2000/svg">
<path d="M0 14C0 16.7689 0.821086 19.4757 2.35943 21.778C3.89777 24.0803 6.08427 25.8747 8.64243 26.9343C11.2006 27.9939 14.0155 28.2712 16.7313 27.731C19.447 27.1908 21.9416 25.8574 23.8995 23.8995C25.8574 21.9416 27.1908 19.447 27.731 16.7313C28.2712 14.0155 27.9939 11.2006 26.9343 8.64243C25.8747 6.08427 24.0803 3.89777 21.778 2.35943C19.4757 0.821086 16.7689 0 14 0C10.287 0 6.72601 1.475 4.1005 4.1005C1.475 6.72601 0 10.287 0 14ZM6 13H18.15L12.57 7.393L14 6L22 14L14 22L12.57 20.573L18.15 15H6V13Z" fill="#3652E3"/>
</svg>
