<svg width="28" height="28" viewBox="0 0 28 28" fill="none" xmlns="http://www.w3.org/2000/svg">
<path d="M28 14C28 11.2311 27.1789 8.52431 25.6406 6.22202C24.1022 3.91973 21.9157 2.12531 19.3576 1.06569C16.7994 0.00605867 13.9845 -0.271188 11.2687 0.269005C8.553 0.809199 6.05844 2.14257 4.10051 4.1005C2.14257 6.05844 0.809202 8.553 0.269008 11.2687C-0.271186 13.9845 0.00606063 16.7994 1.06569 19.3576C2.12532 21.9157 3.91973 24.1022 6.22202 25.6406C8.52431 27.1789 11.2311 28 14 28C17.713 28 21.274 26.525 23.8995 23.8995C26.525 21.274 28 17.713 28 14ZM22 15L9.85 15L15.43 20.607L14 22L6 14L14 6L15.43 7.427L9.85 13L22 13L22 15Z" fill="#3652E3"/>
</svg>
