<svg width="42" height="24" viewBox="0 0 42 24" fill="none" xmlns="http://www.w3.org/2000/svg">
<path opacity="0.5" d="M21 16C15.24 16 14.22 10.26 14.04 5.70599C13.99 4.43999 13.964 3.80599 14.44 3.22099C14.916 2.63499 15.485 2.53899 16.624 2.34699C18.0705 2.10992 19.5343 1.99385 21 1.99999C22.783 1.99999 24.253 2.15699 25.377 2.34699C26.515 2.53899 27.085 2.63499 27.56 3.22099C28.036 3.80699 28.011 4.43999 27.96 5.70599C27.78 10.259 26.76 16 21 16Z" fill="#EDA10E"/>
<path d="M26.64 12.422L29.457 10.857C30.209 10.439 30.585 10.23 30.793 9.878C31 9.526 31 9.096 31 8.235V8.162C31 7.119 31 6.597 30.717 6.204C30.434 5.811 29.939 5.646 28.949 5.316L28 5L27.983 5.085C27.978 5.274 27.97 5.48 27.961 5.706C27.873 7.931 27.584 10.439 26.641 12.422M14.04 5.706C14.127 7.931 14.416 10.439 15.36 12.422L12.543 10.857C11.791 10.439 11.414 10.23 11.207 9.878C11 9.526 11 9.096 11 8.235V8.162C11 7.119 11 6.597 11.283 6.204C11.566 5.811 12.061 5.646 13.051 5.316L14 5L14.017 5.087C14.022 5.275 14.03 5.481 14.039 5.707" fill="#EDA10E"/>
<path fill-rule="evenodd" clip-rule="evenodd" d="M14.25 22C14.25 21.8011 14.329 21.6103 14.4697 21.4697C14.6103 21.329 14.8011 21.25 15 21.25H27C27.1989 21.25 27.3897 21.329 27.5303 21.4697C27.671 21.6103 27.75 21.8011 27.75 22C27.75 22.1989 27.671 22.3897 27.5303 22.5303C27.3897 22.671 27.1989 22.75 27 22.75H15C14.8011 22.75 14.6103 22.671 14.4697 22.5303C14.329 22.3897 14.25 22.1989 14.25 22Z" fill="#EDA10E"/>
<path opacity="0.5" d="M24.458 21.25H17.543L17.84 19.5C17.8853 19.2734 18.0077 19.0694 18.1864 18.9229C18.365 18.7763 18.5889 18.6961 18.82 18.696H23.18C23.4113 18.6959 23.6354 18.776 23.8143 18.9226C23.9932 19.0691 24.1157 19.2732 24.161 19.5L24.458 21.25Z" fill="#EDA10E"/>
<path d="M21 16C20.74 16 20.49 15.989 20.25 15.966V18.696H21.75V15.966C21.5007 15.9891 21.2504 16.0004 21 16Z" fill="#EDA10E"/>
<path d="M22.131 6.18182V12H20.7276V7.49432H20.6935L19.3924 8.28977V7.07386L20.8271 6.18182H22.131Z" fill="#EDA10E"/>
</svg>
