<svg width="42" height="24" viewBox="0 0 42 24" fill="none" xmlns="http://www.w3.org/2000/svg">
<path opacity="0.5" d="M21 16C15.24 16 14.22 10.26 14.04 5.706C13.99 4.44 13.964 3.806 14.44 3.221C14.916 2.635 15.485 2.539 16.624 2.347C18.0705 2.10993 19.5343 1.99387 21 2C22.783 2 24.253 2.157 25.377 2.347C26.515 2.539 27.085 2.635 27.56 3.221C28.036 3.807 28.011 4.44 27.96 5.706C27.78 10.259 26.76 16 21 16Z" fill="#D5912B"/>
<path d="M26.64 12.422L29.457 10.857C30.209 10.439 30.585 10.23 30.793 9.878C31 9.526 31 9.096 31 8.235V8.162C31 7.119 31 6.597 30.717 6.204C30.434 5.811 29.939 5.646 28.949 5.316L28 5L27.983 5.085C27.978 5.274 27.97 5.48 27.961 5.706C27.873 7.931 27.584 10.439 26.641 12.422M14.04 5.706C14.127 7.931 14.416 10.439 15.36 12.422L12.543 10.857C11.791 10.439 11.414 10.23 11.207 9.878C11 9.526 11 9.096 11 8.235V8.162C11 7.119 11 6.597 11.283 6.204C11.566 5.811 12.061 5.646 13.051 5.316L14 5L14.017 5.087C14.022 5.275 14.03 5.481 14.039 5.707" fill="#D5912B"/>
<path fill-rule="evenodd" clip-rule="evenodd" d="M14.25 22C14.25 21.8011 14.329 21.6103 14.4697 21.4697C14.6103 21.329 14.8011 21.25 15 21.25H27C27.1989 21.25 27.3897 21.329 27.5303 21.4697C27.671 21.6103 27.75 21.8011 27.75 22C27.75 22.1989 27.671 22.3897 27.5303 22.5303C27.3897 22.671 27.1989 22.75 27 22.75H15C14.8011 22.75 14.6103 22.671 14.4697 22.5303C14.329 22.3897 14.25 22.1989 14.25 22Z" fill="#D5912B"/>
<path opacity="0.5" d="M24.458 21.25H17.543L17.84 19.5C17.8853 19.2734 18.0077 19.0695 18.1864 18.9229C18.365 18.7763 18.5889 18.6961 18.82 18.696H23.18C23.4113 18.6959 23.6354 18.776 23.8143 18.9226C23.9932 19.0692 24.1157 19.2732 24.161 19.5L24.458 21.25Z" fill="#D5912B"/>
<path d="M21 16C20.74 16 20.49 15.989 20.25 15.966V18.696H21.75V15.966C21.5007 15.9891 21.2504 16.0004 21 16Z" fill="#D5912B"/>
<path d="M20.9741 12.0795C20.5309 12.0795 20.1379 12.0038 19.7951 11.8523C19.4542 11.6989 19.1853 11.4877 18.9883 11.2188C18.7913 10.9498 18.6909 10.6402 18.6871 10.2898H20.1019C20.1076 10.4167 20.1483 10.5294 20.2241 10.6278C20.2998 10.7244 20.4031 10.8002 20.5337 10.8551C20.6644 10.91 20.8131 10.9375 20.9798 10.9375C21.1464 10.9375 21.2932 10.9081 21.4201 10.8494C21.5489 10.7888 21.6493 10.7064 21.7212 10.6023C21.7932 10.4962 21.8282 10.375 21.8263 10.2386C21.8282 10.1023 21.7894 9.98106 21.7099 9.875C21.6303 9.76894 21.5176 9.68655 21.3718 9.62784C21.2279 9.56913 21.0574 9.53977 20.8604 9.53977H20.2951V8.53977H20.8604C21.0328 8.53977 21.1843 8.51136 21.315 8.45455C21.4476 8.39773 21.5508 8.31818 21.6246 8.21591C21.6985 8.11174 21.7345 7.99242 21.7326 7.85795C21.7345 7.72727 21.7032 7.61269 21.6388 7.5142C21.5763 7.41383 21.4883 7.33617 21.3746 7.28125C21.2629 7.22633 21.1332 7.19886 20.9854 7.19886C20.8301 7.19886 20.689 7.22633 20.5621 7.28125C20.4371 7.33617 20.3377 7.41383 20.2638 7.5142C20.19 7.61458 20.1512 7.73106 20.1474 7.86364H18.8036C18.8074 7.51705 18.904 7.21212 19.0934 6.94886C19.2828 6.68371 19.5404 6.47633 19.8661 6.3267C20.1938 6.17708 20.5669 6.10227 20.9854 6.10227C21.4021 6.10227 21.7686 6.17519 22.0849 6.32102C22.4012 6.46686 22.6474 6.66572 22.8235 6.91761C22.9996 7.16761 23.0877 7.45076 23.0877 7.76705C23.0896 8.0947 22.9826 8.36458 22.7667 8.5767C22.5527 8.78883 22.2771 8.91951 21.94 8.96875V9.0142C22.3907 9.06723 22.7307 9.21307 22.9599 9.4517C23.1909 9.69034 23.3055 9.98864 23.3036 10.3466C23.3036 10.6837 23.2042 10.983 23.0053 11.2443C22.8084 11.5038 22.5337 11.7083 22.1815 11.858C21.8311 12.0057 21.4286 12.0795 20.9741 12.0795Z" fill="#D5912B"/>
</svg>
