<svg width="40" height="40" viewBox="0 0 40 40" fill="none" xmlns="http://www.w3.org/2000/svg">
<path d="M20 1.95312C19.0942 1.95312 18.2031 2.95312 18.2031 4.375C18.2031 5.79688 19.0942 6.79688 20 6.79688C20.9058 6.79688 21.7969 5.79688 21.7969 4.375C21.7969 2.95312 20.9058 1.95312 20 1.95312ZM11.8788 2.18555L10.6212 2.81445C11.8002 5.17266 14.6345 7.25273 17.0421 8.63023L18.1511 23.0469H19.2969V15H20.7031V23.0469H21.8489L22.9579 8.63023C25.3655 7.25273 28.1998 5.17266 29.3788 2.81445L28.1212 2.18555C26.5657 4.52148 24.6141 6.02523 22.5482 6.69883C21.9774 7.6 21.0742 8.20312 20 8.20312C18.9258 8.20312 18.0227 7.6 17.4518 6.69875C15.3859 6.02531 13.4343 4.52148 11.8788 2.18555ZM13.2031 24.4531V31.9531H1.95312V38.0469H38.0469V35.7031H26.7969V24.4531H13.2031Z" fill="white"/>
</svg>
