<svg width="42" height="24" viewBox="0 0 42 24" fill="none" xmlns="http://www.w3.org/2000/svg">
<path opacity="0.5" d="M21 16C15.24 16 14.22 10.26 14.04 5.70599C13.99 4.43999 13.964 3.80599 14.44 3.22099C14.916 2.63499 15.485 2.53899 16.624 2.34699C18.0705 2.10992 19.5343 1.99385 21 1.99999C22.783 1.99999 24.253 2.15699 25.377 2.34699C26.515 2.53899 27.085 2.63499 27.56 3.22099C28.036 3.80699 28.011 4.43999 27.96 5.70599C27.78 10.259 26.76 16 21 16Z" fill="#9B9C9E"/>
<path d="M26.64 12.422L29.457 10.857C30.209 10.439 30.585 10.23 30.793 9.878C31 9.526 31 9.096 31 8.235V8.162C31 7.119 31 6.597 30.717 6.204C30.434 5.811 29.939 5.646 28.949 5.316L28 5L27.983 5.085C27.978 5.274 27.97 5.48 27.961 5.706C27.873 7.931 27.584 10.439 26.641 12.422M14.04 5.706C14.127 7.931 14.416 10.439 15.36 12.422L12.543 10.857C11.791 10.439 11.414 10.23 11.207 9.878C11 9.526 11 9.096 11 8.235V8.162C11 7.119 11 6.597 11.283 6.204C11.566 5.811 12.061 5.646 13.051 5.316L14 5L14.017 5.087C14.022 5.275 14.03 5.481 14.039 5.707" fill="#9B9C9E"/>
<path fill-rule="evenodd" clip-rule="evenodd" d="M14.25 22C14.25 21.8011 14.329 21.6103 14.4697 21.4697C14.6103 21.329 14.8011 21.25 15 21.25H27C27.1989 21.25 27.3897 21.329 27.5303 21.4697C27.671 21.6103 27.75 21.8011 27.75 22C27.75 22.1989 27.671 22.3897 27.5303 22.5303C27.3897 22.671 27.1989 22.75 27 22.75H15C14.8011 22.75 14.6103 22.671 14.4697 22.5303C14.329 22.3897 14.25 22.1989 14.25 22Z" fill="#9B9C9E"/>
<path opacity="0.5" d="M24.458 21.25H17.543L17.84 19.5C17.8853 19.2734 18.0077 19.0694 18.1864 18.9229C18.365 18.7763 18.5889 18.6961 18.82 18.696H23.18C23.4113 18.6959 23.6354 18.776 23.8143 18.9226C23.9932 19.0691 24.1157 19.2732 24.161 19.5L24.458 21.25Z" fill="#9B9C9E"/>
<path d="M21 16C20.74 16 20.49 15.989 20.25 15.966V18.696H21.75V15.966C21.5007 15.9891 21.2504 16.0004 21 16Z" fill="#9B9C9E"/>
<path d="M18.8782 12V10.9886L21.0004 9.13068C21.1594 8.98674 21.2949 8.85511 21.4066 8.7358C21.5183 8.61458 21.6036 8.49337 21.6623 8.37216C21.721 8.24905 21.7504 8.11553 21.7504 7.97159C21.7504 7.81061 21.7153 7.6733 21.6452 7.55966C21.5752 7.44413 21.4786 7.35511 21.3555 7.29261C21.2324 7.23011 21.0913 7.19886 20.9322 7.19886C20.7712 7.19886 20.6301 7.23201 20.5089 7.2983C20.3877 7.36269 20.293 7.45644 20.2248 7.57955C20.1585 7.70265 20.1254 7.85227 20.1254 8.02841H18.793C18.793 7.63258 18.882 7.29072 19.06 7.00284C19.238 6.71496 19.488 6.49337 19.81 6.33807C20.1339 6.18087 20.5098 6.10227 20.9379 6.10227C21.3791 6.10227 21.7627 6.17614 22.0884 6.32386C22.4142 6.47159 22.6661 6.67803 22.8441 6.94318C23.024 7.20644 23.114 7.51231 23.114 7.8608C23.114 8.08239 23.0695 8.30208 22.9805 8.51989C22.8915 8.73769 22.7314 8.97822 22.5004 9.24148C22.2712 9.50473 21.9454 9.82008 21.5231 10.1875L20.8271 10.8295V10.8665H23.185V12H18.8782Z" fill="#9B9C9E"/>
</svg>
